<svg xmlns="http://www.w3.org/2000/svg" xmlns:xlink="http://www.w3.org/1999/xlink" viewBox="0 0 142 142"><path fill="#DCE7EA" d="M129.3 30.5C137.6 42.4 142 56.4 142 71v2.3c0-.1 0-.1-.1-.2-.2-.7-.3-1.4-.5-2V71c-.2-.7-.4-1.4-.6-2 0-.1-.1-.3-.1-.4-.2-.7-.4-1.3-.7-2 0-.1-.1-.2-.1-.3-.2-.6-.5-1.3-.7-1.9v-.1c-.3-.7-.5-1.3-.8-1.9-.1-.1-.1-.3-.2-.4-.3-.6-.6-1.3-.8-1.9 0-.1-.1-.2-.1-.3l-.9-1.8c0-.1-.1-.1-.1-.2-.3-.6-.6-1.2-1-1.9-.1-.1-.1-.2-.2-.4-.3-.6-.7-1.2-1-1.8-.1-.1-.1-.2-.2-.3-.3-.6-.7-1.1-1.1-1.7 0-.1-.1-.1-.1-.2-.4-.6-.8-1.2-1.2-1.7-.1-.1-.2-.2-.2-.3-.4-.6-.8-1.1-1.2-1.7-.1-.1-.1-.2-.2-.2-.4-.5-.8-1.1-1.2-1.6l-.2-.2c-.4-.6-.9-1.1-1.3-1.6l-.3-.3c-.5-.5-.9-1.1-1.4-1.6l-.2-.2c-.5-.5-.9-1-1.4-1.5l-.1-.1c0-.1 0-.1-.1-.2-.2-.6-.4-1.3-.6-1.9 0-.1-.1-.2-.1-.2-.2-.7-.5-1.3-.7-2 0-.1-.1-.3-.1-.4-.3-.7-.5-1.3-.8-2 0-.1-.1-.2-.1-.2-.3-.6-.5-1.3-.8-1.9 0-.1-.1-.2-.1-.2-.3-.6-.6-1.3-.9-1.9-.1-.1-.1-.2-.2-.4-.3-.6-.6-1.3-1-1.9 0-.1-.1-.1-.1-.2-.3-.6-.7-1.2-1-1.8 0-.1-.1-.2-.1-.2-.4-.6-.7-1.2-1.1-1.8-.1-.1-.1-.2-.2-.3l-1.2-1.8c0-.1-.1-.1-.1-.2-.4-.6-.8-1.1-1.2-1.7-.1-.1-.1-.2-.2-.2-.4-.6-.8-1.1-1.3-1.7-.1-.1-.2-.2-.2-.3-.4-.6-.9-1.1-1.3-1.7 0-.1-.1-.1-.1-.2-.4-.5-.9-1-1.3-1.6-.1-.1-.1-.2-.2-.2-.5-.5-.9-1-1.4-1.6l-.3-.3-1.5-1.5-.1-.1c-.5-.5-1-.9-1.5-1.4l-.2-.2c10.1 5 18.9 12.7 25.6 22.2z"/><path fill="#DCE7EA" d="M96.6 4.9l.1.1c.6.5 1.2.9 1.8 1.4l.1.1c.6.5 1.2 1 1.7 1.5.1.1.2.2.3.2.5.5 1.1 1 1.6 1.5l.3.3c.5.5 1 1 1.6 1.5l.3.3c.5.5 1 1.1 1.5 1.6l.2.2c.5.5 1 1.1 1.5 1.7l.1.1c.5.6 1 1.2 1.4 1.7.1.1.2.2.2.3.4.6.9 1.1 1.3 1.7l.3.3c.4.6.8 1.2 1.3 1.8.1.1.1.2.2.3.4.6.8 1.2 1.2 1.9 0 .1.1.1.1.2.4.6.8 1.3 1.2 1.9l.1.1c.4.7.7 1.3 1.1 2 .1.1.1.2.2.3.3.6.7 1.3 1 1.9.1.1.1.2.2.4.3.7.6 1.3.9 2 .1.1.1.2.2.3l.9 2.1c0 .1.1.1.1.2.3.7.6 1.4.8 2.2v.1C106.9 24.7 89.5 18 71.1 18c-18.5 0-35.8 6.8-49.3 19.2v-.1c.3-.7.5-1.4.8-2.1 0-.1.1-.1.1-.2l.9-2.1c.1-.1.1-.2.2-.3.3-.7.6-1.3.9-2 .1-.1.1-.2.2-.4.3-.7.7-1.3 1-2 .1-.1.1-.2.2-.3.4-.7.7-1.3 1.1-2 0 0 0-.1.1-.1.4-.7.8-1.3 1.2-1.9 0-.1.1-.1.1-.2.4-.6.8-1.3 1.2-1.9.1-.1.1-.2.2-.3.4-.6.8-1.2 1.3-1.8.1-.1.2-.2.2-.3.4-.6.9-1.2 1.3-1.8.1-.1.1-.2.2-.3l1.5-1.8.1-.1c.5-.6 1-1.1 1.5-1.7 0-.1.1-.1.1-.2.5-.6 1-1.1 1.6-1.6.1-.1.2-.2.2-.3.5-.5 1-1 1.6-1.5l.3-.3c.5-.5 1.1-1 1.6-1.5.1 0 .2-.1.3-.1.6-.5 1.1-1 1.7-1.5l.1-.1c.6-.5 1.2-.9 1.8-1.4l.1-.1C53.6 1.8 62.2.2 71 .2c8.9-.1 17.5 1.5 25.6 4.7z"/><path fill="#DCE7EA" d="M12.9 30.5C19.5 21 28.3 13.3 38.6 8l-.2.2c-.5.5-1 .9-1.4 1.4-.1.1-.1.1-.2.1l-1.5 1.5-.3.3c-.5.5-.9 1-1.4 1.6-.1.1-.1.2-.2.3-.4.5-.9 1-1.3 1.5-.1.1-.1.1-.1.2-.4.5-.9 1.1-1.3 1.7l-.3.3c-.4.6-.8 1.1-1.3 1.7 0 .1-.1.2-.2.2-.4.6-.8 1.1-1.2 1.7 0 .1-.1.1-.1.2l-1.2 1.8c-.1.1-.1.2-.2.4-.4.6-.7 1.2-1.1 1.8 0 .1-.1.2-.1.3-.3.6-.7 1.2-1 1.8v.1c-.3.6-.7 1.3-1 1.9-.1.1-.1.2-.2.4-.3.6-.6 1.3-.9 1.9 0 .1-.1.2-.1.2-.3.6-.5 1.2-.8 1.9 0 .1-.1.2-.1.2-.3.7-.5 1.3-.8 2 0 .1-.1.3-.1.4-.2.7-.5 1.3-.7 2 0 .1-.1.2-.1.2-.2.6-.4 1.3-.6 1.9 0 .1 0 .1-.1.2l-.1.1c-.5.5-.9 1-1.4 1.5l-.2.2c-.5.5-.9 1.1-1.4 1.6l-.3.3c-.5.5-.9 1.1-1.3 1.6l-.2.2c-.4.5-.8 1.1-1.2 1.6-.1.1-.1.2-.2.2-.4.6-.8 1.1-1.2 1.7-.1.1-.2.2-.2.3-.4.6-.8 1.2-1.2 1.7 0 .1-.1.1-.1.2-.4.6-.7 1.1-1.1 1.7-.1.1-.1.2-.2.3-.4.6-.7 1.2-1 1.8-.1.1-.1.2-.2.4-.3.6-.7 1.2-1 1.9v.3l-.9 1.8c-.1.1-.1.2-.2.3-.3.6-.6 1.3-.8 1.9-.1.1-.1.2-.2.4-.3.6-.5 1.3-.8 2v.1c-.2.6-.5 1.3-.7 1.9 0 .1-.1.2-.1.3-.2.7-.4 1.3-.7 2 0 .1-.1.3-.1.4-.2.7-.4 1.4-.6 2v.1c-.2.7-.4 1.4-.5 2 0 .1 0 .1-.1.2V71C.2 56.4 4.6 42.4 12.9 30.5z"/><path fill="#DCE7EA" d="M.9 81v-.1c.1-.8.2-1.5.4-2.3v-.2c.1-.7.3-1.5.4-2.2 0-.1 0-.2.1-.3.2-.7.3-1.4.5-2.1 0-.1.1-.3.1-.4l.6-2.1c0-.1.1-.2.1-.3.2-.7.4-1.4.7-2.1 0-.1 0-.1.1-.2.2-.7.5-1.4.7-2.1v-.1c.3-.7.5-1.4.8-2.1 0-.1.1-.2.1-.3.3-.7.6-1.3.9-2 .1-.1.1-.2.2-.4.3-.7.6-1.3.9-2 .1-.1.1-.2.2-.3.3-.7.7-1.3 1-2 0-.1.1-.1.1-.2.4-.7.7-1.3 1.1-2v-.1c.4-.7.8-1.3 1.2-1.9.1-.1.1-.2.2-.3l1.2-1.8c.1-.1.1-.2.2-.3.4-.6.8-1.2 1.3-1.8.1-.1.2-.2.2-.3.4-.6.9-1.2 1.4-1.8l.2-.2 1.5-1.8c-1.3 5.4-1.9 10.9-1.9 16.5 0 16.6 5.5 32.3 15.8 45.3 9.1 11.5 21.6 20 35.5 24.4h-.2c-.6.1-1.1.2-1.7.3-.2 0-.4.1-.6.1-.5.1-.9.1-1.4.2-.2 0-.4.1-.6.1-.6.1-1.3.1-1.9.2h-.1c-.6.1-1.2.1-1.8.1h-.6c-.5 0-1 0-1.4.1h-6.5c-.3 0-.6 0-.9-.1-.3 0-.5 0-.8-.1-.3 0-.6 0-.9-.1-.3 0-.6-.1-.8-.1-.3 0-.5-.1-.8-.1-.3 0-.6-.1-.9-.1-.3 0-.5-.1-.8-.1-.3 0-.6-.1-.9-.1-.2 0-.5-.1-.7-.1-.3 0-.6-.1-.9-.2-.2 0-.5-.1-.7-.1-.3-.1-.6-.1-.9-.2-.2 0-.5-.1-.7-.1-.3-.1-.6-.1-.9-.2-.2-.1-.5-.1-.7-.2-.3-.1-.6-.1-.9-.2-.2-.1-.5-.1-.7-.2-.3-.1-.6-.2-.8-.2-.2-.1-.5-.1-.7-.2-.3-.1-.6-.2-.8-.2-.2-.1-.5-.1-.7-.2-.3-.1-.5-.2-.8-.3-.3-.1-.5-.2-.8-.2-.3-.1-.5-.2-.8-.3-.3-.1-.5-.2-.8-.3-.3-.1-.5-.2-.8-.3-.2-.1-.5-.2-.7-.3C13.2 116 3.5 99.5.9 81z"/><path fill="#DCE7EA" d="M71.1 141.9c-13.1 0-25.5-3.5-36.5-10.1.1 0 .2 0 .3.1.6.2 1.3.3 1.9.5h.2c.7.2 1.4.3 2.1.5.2 0 .4.1.6.1.6.1 1.2.2 1.7.3.1 0 .3.1.4.1l2.1.3c.2 0 .3 0 .5.1.6.1 1.2.1 1.7.2.2 0 .4 0 .5.1.7.1 1.4.1 2.1.2h.4c.6 0 1.2.1 1.8.1h5.8c.5 0 .9 0 1.4-.1.3 0 .6 0 1-.1.4 0 .8-.1 1.2-.1.3 0 .7-.1 1-.1.4 0 .8-.1 1.2-.1.4 0 .7-.1 1.1-.1.4-.1.8-.1 1.1-.2.4-.1.7-.1 1.1-.2.4-.1.7-.1 1.1-.2.3-.1.7-.1 1-.2.4-.1.7-.1 1.1-.2.3-.1.7-.2 1-.2.3-.1.7-.1 1-.2.3.1.7.2 1 .2.3.1.7.2 1 .2.4.1.7.1 1.1.2.3.1.7.1 1 .2.4.1.7.1 1.1.2.4.1.7.1 1.1.2.4.1.8.1 1.1.2.4 0 .7.1 1.1.1.4 0 .8.1 1.2.1.3 0 .7.1 1 .1.4 0 .8.1 1.2.1.3 0 .6.1 1 .1.5 0 .9 0 1.4.1h5.8c.6 0 1.2-.1 1.8-.1h.4c.7 0 1.4-.1 2.1-.2.2 0 .4 0 .5-.1.6-.1 1.2-.1 1.7-.2.2 0 .3 0 .5-.1l2.1-.3c.1 0 .3-.1.4-.1.6-.1 1.2-.2 1.7-.3.2 0 .4-.1.6-.1.7-.1 1.4-.3 2.1-.5h.2c.6-.2 1.3-.3 1.9-.5.1 0 .2 0 .3-.1-10.8 6.6-23.3 10.1-36.3 10.1z"/><path fill="#DCE7EA" d="M113.9 127.4c-.2.1-.5.2-.7.3-.3.1-.5.2-.8.3-.3.1-.5.2-.8.3-.3.1-.5.2-.8.3-.3.1-.5.2-.8.2-.3.1-.5.2-.8.3-.2.1-.5.1-.7.2-.3.1-.5.2-.8.2-.2.1-.5.1-.7.2-.3.1-.6.2-.8.2-.2.1-.5.1-.7.2-.3.1-.6.1-.8.2-.2.1-.5.1-.7.2-.3.1-.6.1-.8.2-.3.1-.5.1-.8.1-.3.1-.6.1-.8.2-.3 0-.5.1-.8.1-.3 0-.6.1-.8.1-.3 0-.5.1-.8.1-.3 0-.6.1-.8.1-.3 0-.5.1-.8.1-.3 0-.6.1-.8.1-.3 0-.5.1-.8.1-.3 0-.5.1-.8.1-.3 0-.6 0-.9.1-.3 0-.5 0-.8.1-.3 0-.6 0-.9.1h-6.5c-.5 0-1 0-1.4-.1h-.6c-.6 0-1.2-.1-1.8-.1h-.1c-.6-.1-1.3-.1-1.9-.2-.2 0-.4 0-.6-.1-.5-.1-.9-.1-1.4-.2-.2 0-.4-.1-.6-.1-.6-.1-1.1-.2-1.7-.3h-.2c13.9-4.3 26.4-12.9 35.5-24.4 10.3-13 15.8-28.7 15.8-45.3 0-5.6-.6-11.1-1.9-16.5l1.5 1.8.2.2c.5.6.9 1.2 1.4 1.8.1.1.1.2.2.3.4.6.9 1.2 1.3 1.8.1.1.1.2.2.3l1.2 1.8c.1.1.1.2.2.2.4.6.8 1.3 1.2 2v.1c.4.7.8 1.3 1.1 2 0 .1.1.1.1.2.4.7.7 1.3 1 2 .1.1.1.2.2.3.3.7.6 1.3.9 2 .1.1.1.2.2.3.3.7.6 1.3.9 2 0 .1.1.2.1.3.3.7.6 1.4.8 2.1v.1c.3.7.5 1.4.8 2.2 0 .1 0 .1.1.2.2.7.5 1.4.7 2.1 0 .1.1.2.1.3l.6 2.1c0 .1.1.3.1.4.2.7.3 1.4.5 2.1 0 .1 0 .2.1.3.2.7.3 1.5.4 2.2v.2c.1.7.3 1.5.4 2.3v.1c-3.1 18.6-12.8 35.1-27.8 46.5z"/><g><path fill="#DCE7EA" d="M57.4 78.8l4.2 4.4v8.6h7V50.2h-7V75L49.2 61.7h-8.4l12 12.3-12.4 17.8h8zM80.5 75V50.2h-7v41.6h7v-8.6l4.2-4.4 9.1 13h7.9L89.4 74l11.9-12.3H93z"/></g><g><defs><path id="a" d="M119 43.3C106.9 30.7 89.9 23 71.1 23c-18.8 0-35.8 7.8-48 20.3-1.8 6-2.7 12.4-2.7 19 0 31.3 21.6 57.6 50.7 64.8 29.1-7.2 50.7-33.5 50.7-64.8 0-6.7-1-13-2.8-19zm-16.1 49.1c-.6 1.1-1.7 1.8-3 1.8h-7.5c-1.1 0-2.1-.5-2.7-1.4l-6.2-8.9-.2.2v6.8c0 1.8-1.5 3.3-3.3 3.3H62.2c-1.8 0-3.3-1.5-3.3-3.3v-6.8l-.2-.2-6.2 8.9c-.6.9-1.6 1.4-2.7 1.4h-7.5c-1.2 0-2.4-.7-3-1.8-.6-1.1-.5-2.4.2-3.5l10.1-14.5-9.3-9.6c-.9-1-1.2-2.4-.7-3.6.5-1.2 1.7-2 3.1-2h7.9c.9 0 1.8.4 2.4 1.1l6 6.4V51.6c0-1.8 1.5-3.3 3.3-3.3H80c1.8 0 3.3 1.5 3.3 3.3v14.9l6-6.4c.6-.7 1.5-1.1 2.4-1.1h7.9c1.3 0 2.6.8 3.1 2s.2 2.7-.7 3.6l-9.3 9.6 10.1 14.5c.6 1.2.7 2.6.1 3.7z"/></defs><clipPath id="b"><use xlink:href="#a" overflow="visible"/></clipPath><g clip-path="url(#b)"><path fill="#FFF" d="M131.8 81.6h-.2c-.5-.1-.9-.6-.8-1.1 2.4-15.8-1.4-31.6-10.9-44.5S96.6 14.6 80.8 12.1c-23.4-3.6-46 6.8-58.9 27.2-.3.5-.9.6-1.4.3-.5-.3-.6-.9-.3-1.4 13.3-21 36.6-31.8 60.9-28 16.3 2.5 30.7 11.3 40.5 24.6s13.8 29.7 11.2 46c0 .5-.5.8-1 .8zM15.8 96.6c-.4 0-.8-.2-.9-.6-4.7-10.7-6.2-22.5-4.4-34.1 1.3-8.1 3.4-14.9 6.7-20.7.3-.5.9-.7 1.4-.4.5.3.7.9.4 1.4-3.1 5.6-5.2 12.2-6.5 20.1-1.7 11.2-.3 22.6 4.3 33 .2.5 0 1.1-.5 1.3h-.5z"/><path fill="#FFF" d="M126.2 80.8h-.2c-.5-.1-.9-.6-.8-1.1 1.8-11.8-.8-23.8-7.8-35.5-.3-.5-.1-1.1.3-1.4.5-.3 1.1-.1 1.4.3 7.3 12.2 10 24.6 8.1 36.9 0 .4-.5.8-1 .8zM21.2 94.8c-.4 0-.7-.2-.9-.6-4.4-9.9-5.9-20.7-4.2-31.4C18.5 47 27.2 32.9 39.9 24.1c11.9-8.3 26.2-11.2 40.4-8.3 16.4 3.4 29.4 11.1 37.5 22.4.3.4.2 1.1-.2 1.4-.4.3-1.1.2-1.4-.2-7.9-11-20.4-18.4-36.3-21.7-13.6-2.8-27.4.1-38.8 8-12.3 8.5-20.7 22.2-23 37.4-1.6 10.3-.2 20.8 4.1 30.3.2.5 0 1.1-.5 1.3-.3.1-.4.1-.5.1z"/><path fill="#FFF" d="M119 91.6h-.1c-.5-.1-.9-.6-.9-1.1l1.6-11.7c2.5-16.1-4.2-33.7-16.9-44.8-.4-.4-.5-1-.1-1.4.4-.4 1-.5 1.4-.1 13.2 11.6 20.1 29.9 17.6 46.6L120 90.7c-.1.5-.5.9-1 .9zM99.6 30.3c-.2 0-.4-.1-.6-.2-5.7-3.8-12.8-6.7-20-8.2-11.9-2.4-21.4 2.1-31 7.4-.5.3-1.1.1-1.4-.4-.3-.5-.1-1.1.4-1.4 9.9-5.5 19.8-10.2 32.3-7.6 7.5 1.5 14.8 4.6 20.7 8.5.5.3.6.9.3 1.4-.1.3-.4.5-.7.5zM22.8 60h-.2c-.5-.1-.9-.7-.7-1.2 2.5-9.5 8-22.4 20.2-29.5.5-.3 1.1-.1 1.4.4s.1 1.1-.4 1.4c-11.7 6.7-16.9 19.1-19.3 28.3-.2.3-.6.6-1 .6zM26.1 91.9c-.4 0-.8-.2-.9-.6-3.4-7.9-4.3-17.2-2.7-27.6.1-.5.6-.9 1.1-.8.5.1.9.6.8 1.1-1.5 10-.6 19 2.6 26.5.2.5 0 1.1-.5 1.3-.2.1-.3.1-.4.1z"/><path fill="#FFF" d="M110.6 107.8c-.1 0-.3 0-.4-.1-.5-.2-.7-.8-.5-1.3 4.3-8.8 4.4-28.1 4.4-28.3 0-.6.4-1 1-1s1 .4 1 1c0 .8-.1 19.9-4.6 29.2-.2.3-.6.5-.9.5zM116 73.4c-.6 0-1-.5-1-1 .4-18.5-10.8-39.8-32.6-42.5-.5-.1-.9-.6-.9-1.1.1-.5.6-.9 1.1-.9 22.9 2.9 34.8 25.2 34.3 44.6.1.4-.4.9-.9.9zM36.7 45.3c-.2 0-.4 0-.5-.1-.5-.3-.6-.9-.3-1.4 4-6.5 10.9-12.1 19.1-15.5 8.2-3.4 16.9-4.2 23.7-2.1.5.2.8.7.7 1.2-.2.5-.7.8-1.2.7-13.4-4-32.7 4-40.5 16.7-.4.3-.7.5-1 .5zM30.5 87.6c-.4 0-.8-.2-.9-.7-2.6-7.1-3.4-14.9-2.3-22.4 1-6.3 4-11.9 6.9-16.6.3-.5.9-.6 1.4-.3.5.3.6.9.3 1.4-2.8 4.5-5.7 9.9-6.6 15.8-1.1 7.2-.4 14.6 2.2 21.4.2.5-.1 1.1-.6 1.3-.2.1-.3.1-.4.1zM101.7 122.8h-.3c-.5-.2-.8-.7-.7-1.3 2.4-7.6 3.9-13.9 5.3-21.5.1-.5.6-.9 1.2-.8.5.1.9.6.8 1.2-1.4 7.8-2.9 14.1-5.4 21.8 0 .3-.4.6-.9.6z"/><path fill="#FFF" d="M107.8 96.4h-.2c-.5-.1-.9-.7-.8-1.2 2-9.3 2.7-18.1 2.7-18.2v-.1c1-6.4-.1-12.3-3.1-17.7-.3-.5-.1-1.1.4-1.4.5-.3 1.1-.1 1.4.4 3.3 5.8 4.4 12.1 3.3 18.9-.1.7-.8 9.3-2.8 18.4 0 .6-.4.9-.9.9zM106.6 55.5c-.4 0-.7-.2-.9-.6-5.2-10.8-15.8-18.5-28.4-20.4-7.2-1.1-14.5-.1-21.2 3-.5.2-1.1 0-1.3-.5-.2-.5 0-1.1.5-1.3 7-3.2 14.7-4.3 22.3-3.1 13.2 2 24.4 10.1 29.9 21.5.2.5 0 1.1-.5 1.3-.1.1-.3.1-.4.1zM33.8 66.5h-.2c-.5-.1-.9-.6-.8-1.1C34.6 54 41.3 44 51.1 37.9c.5-.3 1.1-.1 1.4.3.3.5.1 1.1-.3 1.4-9.4 5.7-15.7 15.2-17.3 26.1-.1.5-.6.8-1.1.8zM34.7 82.2c-.4 0-.8-.3-1-.7-1-3.9-1.5-7.9-1.3-11.9 0-.6.5-1 1-1 .6 0 1 .5 1 1-.2 3.8.2 7.6 1.2 11.3.1.5-.2 1.1-.7 1.2-.1 0-.1.1-.2.1z"/><path fill="#FFF" d="M89.1 135.6c-.2 0-.4-.1-.6-.2-.4-.3-.6-.9-.2-1.4 13.7-19.1 16.2-57.4 16.2-57.8 0-.6.5-1 1.1-.9.6 0 1 .5.9 1.1 0 .1-.6 9.9-3 21.9-3.1 16.2-7.7 28.7-13.6 36.9-.2.3-.5.4-.8.4zM105.8 73.2c-.6 0-1-.5-1-1 .2-8.4-5.4-16-9.6-20.9-.4-.4-.3-1.1.1-1.4.4-.4 1.1-.3 1.4.1 4.4 5.2 10.3 13.2 10.1 22.3 0 .5-.4.9-1 .9zM39.3 76c-.5 0-.9-.4-1-.9-.3-2.9-.3-5.9.2-8.9 1.4-8.9 6.1-16.7 13.4-22 7.2-5.3 16.1-7.5 25-6.1 7.1 1.1 13 3.8 17.6 8.1.4.4.4 1 .1 1.4-.4.4-1 .4-1.4.1-4.3-4-9.9-6.5-16.5-7.5-8.3-1.3-16.7.8-23.5 5.8-6.8 5-11.3 12.3-12.6 20.7-.4 2.8-.5 5.6-.2 8.3.1.5-.3 1-.9 1.1l-.2-.1zM21.1 136.2c-.6 0-1-.4-1-1s.4-1 1-1c23.4 0 43.3-14.6 50.9-37.2.2-.5.7-.8 1.3-.6.5.2.8.7.6 1.3-7.9 23.4-28.6 38.5-52.8 38.5zM55.6 106.3c-.2 0-.5-.1-.6-.2-.4-.4-.5-1-.1-1.4 7.3-8.7 11.3-19.8 11.3-31.1 0-2.8 2.3-5.1 5.2-5.1s5.2 2.3 5.2 5.1c0 6.9-1.9 19.8-2 20.3-.1.5-.6.9-1.1.8-.5-.1-.9-.6-.8-1.1 0-.1 2-13.3 2-20 0-1.7-1.4-3.1-3.2-3.1s-3.2 1.4-3.2 3.1c0 11.8-4.2 23.2-11.8 32.3-.3.3-.6.4-.9.4z"/><path fill="#FFF" d="M15.6 124.8c-.6 0-1-.4-1-1s.4-1 1-1c14.8 0 27.1-5 36.6-14.8.4-.4 1-.4 1.4 0 .4.4.4 1 0 1.4-9.8 10.2-22.6 15.4-38 15.4z"/><path fill="#FFF" d="M26.1 141.8c-.6 0-1-.4-1-1s.4-1 1-1c37.6 0 54.5-34.4 54.5-68.5 0-4.9-4-8.9-8.9-8.9s-8.9 4-8.9 8.9c0 26.3-21.4 47.7-47.7 47.7-.6 0-1-.4-1-1s.4-1 1-1c25.2 0 45.7-20.5 45.7-45.7 0-6 4.9-10.9 10.9-10.9s10.9 4.9 10.9 10.9c0 19.1-5 36.6-14.1 49.1-10.2 14-24.9 21.4-42.4 21.4z"/><path fill="#FFF" d="M29.2 147.8c-.6 0-1-.4-1-1s.4-1 1-1c18.2 0 33.1-7.7 43.1-22.3 8.9-13 13.9-31.6 13.9-52.1 0-8-6.5-14.6-14.6-14.6S57 63.3 57 71.4c0 23.2-18.9 42.1-42.1 42.1-.6 0-1-.4-1-1s.4-1 1-1c22.1 0 40.1-18 40.1-40.1 0-9.1 7.4-16.6 16.6-16.6s16.6 7.4 16.6 16.6c0 21-5 39.9-14.2 53.3-10.4 15.1-25.9 23.1-44.8 23.1z"/><path fill="#FFF" d="M15 107.8c-.6 0-1-.4-1-1s.4-1 1-1c19 0 34.4-15.4 34.4-34.4 0-12.3 10-22.3 22.3-22.3 5.4 0 10.6 1.9 14.6 5.5.4.4.5 1 .1 1.4-.4.4-1 .5-1.4.1-3.7-3.2-8.4-5-13.3-5-11.2 0-20.3 9.1-20.3 20.3 0 20-16.3 36.4-36.4 36.4zM89.1 106.3h-.2c-.5-.1-.9-.6-.8-1.2 2.9-13.9 3.8-21.8 3.8-33.7 0-4.4-1.4-8.6-4.1-12.2-.3-.4-.2-1.1.2-1.4.4-.3 1.1-.2 1.4.2 2.9 3.9 4.5 8.5 4.5 13.4 0 12.1-.9 20-3.8 34.1-.1.5-.5.8-1 .8zM69.2 137.6c-.3 0-.7-.2-.9-.5-.3-.5-.1-1.1.4-1.4.1-.1 12.2-7.3 18-26.2.2-.5.7-.8 1.3-.7.5.2.8.7.7 1.3-6.1 19.8-18.4 27.1-18.9 27.4-.3.1-.5.1-.6.1z"/><path fill="#FFF" d="M79.1 141.4c-.2 0-.4-.1-.6-.2-.4-.3-.5-1-.2-1.4C94.6 119.7 99 84.3 98.6 71.3c0-14-12.3-25.8-26.9-25.8-.6 0-1-.4-1-1s.4-1 1-1c15.7 0 28.9 12.7 28.9 27.8.4 13.7-4 49-20.7 69.7-.2.2-.5.4-.8.4zM15 102.1c-.6 0-1-.4-1-1s.4-1 1-1c15.8 0 28.7-12.9 28.7-28.7 0-13.7 10.2-25.6 23.8-27.6.5-.1 1.1.3 1.1.8.1.5-.3 1.1-.8 1.1-12.6 1.9-22.1 12.9-22.1 25.6 0 17-13.8 30.8-30.7 30.8zM20.1 130.6c-.5 0-1-.4-1-.9 0-.6.4-1 .9-1.1 11.9-1 21.9-4.4 29.9-10.3 6.3-4.7 11.3-10.9 14.9-18.5 6.1-13 5.8-25.6 5.8-25.7 0-.6.4-1 1-1s1 .4 1 1c0 .5.3 13.2-6 26.6-5.8 12.3-18.5 27.6-46.5 29.9.1 0 .1 0 0 0z"/></g></g></svg>